# xmcd
#
# Track frame offsets:
#	150
#	10938
#	22990
#	34926
#	46775
#	59982
#	74238
#	88290
#	102176
#	113412
#	126679
#	138930
#	150722
#	163942
#	177586
#	191833
#	202099
#	213744
#
# Disc length: 2990
#
# Revision: 3
# Processed by: cddbd v1.5.1PL0 Copyright (c) Steve Scherf et al.
# Submitted via: VisiTrax 2.9.9.202 - For more info visit www.synapsa.com
# Normalized: r2:DSETVAR1
#
DISCID=1c0bac12
DTITLE=Various Artist - Blues collection vol. 5 Hard Luck Blues - CD 4
DYEAR=2001
DGENRE=Blues
TTITLE0=Floyd Dixon - Sonny's Blues
TTITLE1=John Lee Hooker - Throw This Old Dog A Bone
TTITLE2=Tiny Kennedy - Jumpin' Little Woman
TTITLE3=Bus Moten and His Men - Turn It Over
TTITLE4=Julia Lee and Her Boy Friends - Oh Chuck It (In A Bucket)
TTITLE5=Floyd Dixon - Broken Hearted Traveler
TTITLE6=Amos Milburn - Real Gone
TTITLE7=John Lee Hooker - My Baby She's Long and Tall
TTITLE8=Tommy Douglas - Leavin Town Blues
TTITLE9=John Lee Hooker - Come Back Baby
TTITLE10=Pee Wee Crayton - Daybreak
TTITLE11=Walter Brown - New Style Baby
TTITLE12=Joe Turner - Miss Brown Blues
TTITLE13=Amos Milburn - Rainy Weather Blues
TTITLE14=Floyd Dixon - Mean Papa Blues
TTITLE15=Smokey Hogg - Peace Of Mind
TTITLE16=Big Jay Mcneely - Insect Ball
TTITLE17=King Cole Trio - Bring Another Drink
EXTD=
EXTT0=
EXTT1=
EXTT2=
EXTT3=
EXTT4=
EXTT5=
EXTT6=
EXTT7=
EXTT8=
EXTT9=
EXTT10=
EXTT11=
EXTT12=
EXTT13=
EXTT14=
EXTT15=
EXTT16=
EXTT17=
PLAYORDER=
